<mxfile host="app.diagrams.net" modified="2024-03-21T12:55:53.596Z" agent="Mozilla/5.0 (Macintosh; Intel Mac OS X 10_15_7) AppleWebKit/605.1.15 (KHTML, like Gecko) Version/16.6 Safari/605.1.15" version="24.0.7" etag="Cz2uIq9TWGY1F45JSarl" type="github">
  <diagram name="Page-1" id="YoGq0hmZ7RljQXgs-5PH">
    <mxGraphModel>
      <root>
        <mxCell id="0" />
        <mxCell id="1" parent="0" />
      </root>
    </mxGraphModel>
  </diagram>
</mxfile>
